<svg width="41" height="36" viewBox="0 0 41 36" fill="none" xmlns="http://www.w3.org/2000/svg">
<path d="M20.2822 1.48486C31.2392 1.48498 39.9052 8.45375 39.9053 16.8198C39.9053 25.186 31.2393 32.1547 20.2822 32.1548C17.4216 32.1548 14.7104 31.6774 12.2646 30.8208L12.0205 30.7349L11.8096 30.8843C11.016 31.4461 9.77402 32.1966 8.28809 32.8755L7.63672 33.1606C5.78116 33.9394 3.57904 34.5913 1.41602 34.5913C1.13927 34.5912 0.896445 34.4514 0.762695 34.2368L0.711914 34.1401C0.599833 33.8796 0.65886 33.5799 0.87207 33.3687L0.871094 33.3677L0.891602 33.3491C0.917298 33.3242 0.955248 33.2868 1.00879 33.2271C1.09985 33.1308 1.23963 32.9786 1.41211 32.772L1.41309 32.7729C1.66516 32.4752 1.97864 32.0726 2.31152 31.5854L2.64941 31.0708L2.65039 31.0688C3.46201 29.764 4.24843 28.0271 4.40625 26.0562L4.42383 25.8403L4.27734 25.6802C1.99091 23.1705 0.658203 20.1118 0.658203 16.8198C0.658297 8.45369 9.32511 1.48486 20.2822 1.48486Z" fill="#03243C" stroke="#969595"/>
</svg>
