<svg width="41" height="36" viewBox="0 0 41 36" fill="none" xmlns="http://www.w3.org/2000/svg">
<path d="M20.2822 1.98486C31.0814 1.98498 39.4052 8.83492 39.4053 16.8198C39.4053 24.8048 31.0814 31.6547 20.2822 31.6548C17.477 31.6548 14.8218 31.186 12.4297 30.3481L11.9424 30.1782L11.5215 30.4761C10.7529 31.0203 9.53756 31.7549 8.08105 32.4204L7.44336 32.6997C5.61875 33.4654 3.48618 34.0913 1.41602 34.0913C1.29394 34.0912 1.20625 34.0218 1.17188 33.9419C1.15597 33.9048 1.15323 33.8693 1.16016 33.8354C1.16375 33.8181 1.17038 33.7997 1.18066 33.7808L1.22363 33.7231L1.23926 33.7085C1.26723 33.6814 1.3107 33.6366 1.37109 33.5698L1.37207 33.5708C1.4685 33.4689 1.61694 33.3084 1.79883 33.0903L1.79785 33.0894C2.05942 32.78 2.38334 32.3671 2.72461 31.8677L3.07227 31.3374L3.0752 31.3335C3.91244 29.9875 4.73897 28.173 4.90527 26.0962L4.93945 25.6636L4.64746 25.3433C2.43281 22.9124 1.1582 19.9704 1.1582 16.8198C1.1583 8.83485 9.48295 1.98486 20.2822 1.98486Z" fill="#1E202F" stroke="#B7B7B7" stroke-width="2"/>
</svg>
