<svg width="41" height="40" viewBox="0 0 41 40" fill="none" xmlns="http://www.w3.org/2000/svg">
<path d="M24.3584 0.693359C25.017 0.361708 25.7867 0.459972 26.3691 0.96582L26.4834 1.07227L26.4844 1.07324L39.0615 13.6807H39.0625C39.4965 14.1143 39.749 14.7374 39.749 15.4111C39.749 16.0806 39.4912 16.7048 39.0615 17.1416L26.4854 29.748C25.8922 30.3384 25.0672 30.4754 24.3535 30.126C23.634 29.7736 23.1396 28.9552 23.1396 28.0186V21.915H15.0938C10.6019 21.915 7.04691 25.9559 7.04688 30.8203C7.04688 33.4493 7.9835 35.0656 8.77344 35.9668L8.92871 36.1377L8.93262 36.1416C9.30825 36.5296 9.5625 37.0157 9.5625 37.501C9.56235 38.224 9.04346 38.7256 8.51367 38.7256C8.39754 38.7256 8.30059 38.7077 8.21875 38.6738L8.1416 38.6348L8.13672 38.6318L7.81934 38.4307C5.97766 37.2203 0.500103 32.8778 0.5 23.8164C0.5 15.5304 6.52034 8.90723 13.8359 8.90723H23.1396V2.80371C23.1396 1.92756 23.5796 1.15111 24.2236 0.766602L24.3555 0.695312L24.3584 0.693359Z" fill="#03243C" stroke="#969595"/>
</svg>
