<svg width="44" height="42" viewBox="0 0 44 42" fill="none" xmlns="http://www.w3.org/2000/svg">
<path d="M34.4128 1.55615C39.0657 1.55615 42.7498 5.12477 42.7498 9.4126C42.7495 13.7002 39.0655 17.2681 34.4128 17.2681C32.1453 17.268 30.1014 16.422 28.613 15.0513L28.1169 14.5942L27.5076 14.8833L18.3562 19.2183L17.6951 19.5317L17.7927 20.2563C17.8341 20.5627 17.8523 20.8767 17.8523 21.2202C17.8523 21.5638 17.8341 21.8777 17.7927 22.1841L17.6951 22.9087L18.3562 23.2222L27.5076 27.5571L28.1169 27.8462L28.613 27.3892C30.1014 26.0185 32.1453 25.1724 34.4128 25.1724C39.0655 25.1724 42.7495 28.7402 42.7498 33.0278C42.7498 37.3157 39.0657 40.8843 34.4128 40.8843C29.7602 40.8841 26.0769 37.3156 26.0769 33.0278C26.0769 32.6844 26.0941 32.3702 26.1355 32.064L26.2332 31.3394L25.573 31.0269L16.4207 26.6909L15.8113 26.4019L15.3152 26.8589C13.8268 28.2296 11.783 29.0766 9.51538 29.0767C4.86255 29.0767 1.17847 25.508 1.17847 21.2202C1.17847 16.9324 4.86255 13.3638 9.51538 13.3638C11.783 13.3638 13.8268 14.2108 15.3152 15.5815L15.8113 16.0386L16.4207 15.7495L25.573 11.4136L26.2332 11.1011L26.1355 10.3765C26.0942 10.0707 26.0769 9.74733 26.0769 9.4126C26.0769 5.12486 29.7602 1.55632 34.4128 1.55615Z" fill="#1E202F" stroke="#B7B7B7" stroke-width="2"/>
</svg>
