<svg width="41" height="40" viewBox="0 0 41 40" fill="none" xmlns="http://www.w3.org/2000/svg">
<path d="M24.584 1.13965C25.0533 0.903539 25.6071 0.964172 26.043 1.34375L26.1279 1.42383L26.1299 1.42578L38.708 14.0332L38.709 14.0352C39.0424 14.3684 39.249 14.8605 39.249 15.4111C39.249 15.9531 39.0405 16.4485 38.708 16.7881L26.1328 29.3936C25.6855 29.8388 25.0887 29.9292 24.5732 29.6768C24.0462 29.4185 23.6396 28.7886 23.6396 28.0186V21.415H15.0938C10.2765 21.415 6.54691 25.7318 6.54688 30.8203C6.54688 33.5829 7.53605 35.3126 8.39648 36.2949L8.56641 36.4814L8.57324 36.4893C8.89232 36.8188 9.0625 37.1869 9.0625 37.501C9.06236 38.0015 8.71652 38.2256 8.51367 38.2256C8.46922 38.2256 8.44082 38.2207 8.4248 38.2168C8.41755 38.215 8.41265 38.2139 8.41016 38.2129L8.40625 38.2109L8.39648 38.2041L8.09277 38.0127C6.32524 36.8515 1.0001 32.6407 1 23.8164C1 15.7545 6.84578 9.40723 13.8359 9.40723H23.6396V2.80371C23.6396 2.08559 24.0011 1.4827 24.4795 1.19629L24.5762 1.14355L24.584 1.13965Z" fill="#1E202F" stroke="#B7B7B7" stroke-width="2"/>
</svg>
