<svg width="44" height="42" viewBox="0 0 44 42" fill="none" xmlns="http://www.w3.org/2000/svg">
<path d="M34.4132 18.2682C39.5678 18.2682 43.7499 14.3014 43.7499 9.41218C43.7499 4.52291 39.5678 0.556152 34.4132 0.556152C29.2585 0.556152 25.0764 4.52291 25.0764 9.41218C25.0764 9.78118 25.0959 10.1502 25.1445 10.51L15.9926 14.8457C14.3197 13.3051 12.0342 12.3642 9.5152 12.3642C4.36055 12.3642 0.178467 16.3309 0.178467 21.2202C0.178467 26.1095 4.36055 30.0762 9.5152 30.0762C12.0342 30.0762 14.3197 29.1353 15.9926 27.5947L25.1445 31.9305C25.0959 32.2902 25.0764 32.65 25.0764 33.0283C25.0764 37.9175 29.2585 41.8843 34.4132 41.8843C39.5678 41.8843 43.7499 37.9175 43.7499 33.0283C43.7499 28.139 39.5678 24.1722 34.4132 24.1722C31.8942 24.1722 29.6086 25.1132 27.9358 26.6538L18.7839 22.318C18.8325 21.9582 18.8519 21.5984 18.8519 21.2202C18.8519 20.842 18.8325 20.4822 18.7839 20.1224L27.9358 15.7867C29.6086 17.3273 31.8942 18.2682 34.4132 18.2682Z" fill="#03243C"/>
</svg>
