<svg width="42" height="35" viewBox="0 0 42 35" fill="none" xmlns="http://www.w3.org/2000/svg">
<path d="M3.49658 13.7515H8.51221C9.36606 13.7515 10.02 14.4212 10.02 15.2095V32.4136C10.0199 33.2017 9.366 33.8715 8.51221 33.8716H3.49658C2.64273 33.8716 1.98887 33.2018 1.98877 32.4136V15.2095C1.98877 14.4212 2.64267 13.7515 3.49658 13.7515ZM22.1011 3.62744C22.3955 2.18456 23.8423 1.2163 25.3569 1.51318C26.8675 1.8093 27.8156 3.23554 27.5239 4.66943L27.3442 5.54541L27.3433 5.54834C26.9511 7.48451 26.2261 9.32748 25.2114 11.0044L24.2925 12.522H37.3511C38.8946 12.522 40.1128 13.7453 40.1128 15.2095C40.1126 16.2321 39.5209 17.1354 38.6294 17.5894L37.2397 18.2974L38.4634 19.2651C39.092 19.7627 39.4857 20.5172 39.4858 21.353C39.4858 22.646 38.5353 23.7492 37.2544 23.9878L35.8228 24.2544L36.5854 25.4946C36.8362 25.9024 36.978 26.3748 36.978 26.8833C36.978 28.0616 36.1924 29.0809 35.0825 29.4321L34.2144 29.7075L34.4067 30.5972C34.4474 30.7851 34.4702 30.9829 34.4702 31.1841C34.4702 32.6482 33.252 33.8716 31.7085 33.8716H24.0679C22.8527 33.8715 21.6691 33.5424 20.6401 32.9243L20.437 32.7964L17.4214 30.8237C15.6078 29.6388 14.5278 27.6472 14.5278 25.5239V16.9829C14.5279 15.0558 15.4223 13.2318 16.9644 12.0112L17.5444 11.5581L17.5454 11.5571C19.8068 9.78412 21.3563 7.28741 21.9214 4.50146L21.9204 4.50049L22.1011 3.62842V3.62744Z" fill="#EDEDEE" stroke="black" stroke-width="2"/>
</svg>
