<svg width="42" height="35" viewBox="0 0 42 35" fill="none" xmlns="http://www.w3.org/2000/svg">
<path d="M25.5493 0.531669C27.5868 0.931055 28.9112 2.87422 28.5037 4.87115L28.3235 5.74672C27.9081 7.79742 27.1401 9.74826 26.0665 11.5225H37.3515C39.4282 11.5225 41.1131 13.1738 41.1131 15.2091C41.1131 16.63 40.2903 17.8665 39.0834 18.481C39.9376 19.1569 40.4862 20.1937 40.4862 21.3535C40.4862 23.1507 39.1696 24.6484 37.4377 24.971C37.7825 25.5317 37.9784 26.1845 37.9784 26.8834C37.9784 28.5194 36.8891 29.9096 35.3844 30.3857C35.4393 30.6392 35.4706 30.908 35.4706 31.1845C35.4706 33.2198 33.7857 34.8712 31.709 34.8712H24.0681C22.5791 34.8712 21.1293 34.441 19.8911 33.6346L16.8739 31.6607C14.7815 30.2936 13.5276 27.9894 13.5276 25.524V22.5824V18.8957V16.9833C13.5276 14.7406 14.5699 12.6284 16.3489 11.2229L16.9288 10.7698C19.0055 9.1415 20.424 6.85271 20.9412 4.30279L21.1215 3.42721C21.529 1.43029 23.5117 0.132283 25.5493 0.531669ZM3.49654 12.7513H8.51208C9.8992 12.7513 11.0199 13.8496 11.0199 15.2091V32.4134C11.0199 33.7728 9.8992 34.8712 8.51208 34.8712H3.49654C2.10943 34.8712 0.98877 33.7728 0.98877 32.4134V15.2091C0.98877 13.8496 2.10943 12.7513 3.49654 12.7513Z" fill="#03243C"/>
</svg>
