<svg width="31" height="31" viewBox="0 0 31 31" fill="none" xmlns="http://www.w3.org/2000/svg">
<path d="M15.182 30.617C19.1397 30.617 22.9352 29.051 25.7337 26.2636C28.5322 23.4763 30.1043 19.6958 30.1043 15.7538C30.1043 11.8118 28.5322 8.03133 25.7337 5.24395C22.9352 2.45656 19.1397 0.890625 15.182 0.890625C11.2244 0.890625 7.42887 2.45656 4.6304 5.24395C1.83193 8.03133 0.259766 11.8118 0.259766 15.7538C0.259766 19.6958 1.83193 23.4763 4.6304 26.2636C7.42887 29.051 11.2244 30.617 15.182 30.617ZM10.4605 11.051C11.0085 10.5052 11.8945 10.5052 12.4366 11.051L15.1762 13.7798L17.9159 11.051C18.4638 10.5052 19.3498 10.5052 19.8919 11.051C20.434 11.5968 20.4398 12.4793 19.8919 13.0192L17.1523 15.748L19.8919 18.4768C20.4398 19.0225 20.4398 19.905 19.8919 20.445C19.344 20.9849 18.458 20.9907 17.9159 20.445L15.1762 17.7162L12.4366 20.445C11.8887 20.9907 11.0026 20.9907 10.4605 20.445C9.91844 19.8992 9.91261 19.0167 10.4605 18.4768L13.2002 15.748L10.4605 13.0192C9.91261 12.4734 9.91261 11.5909 10.4605 11.051Z" fill="black"/>
</svg>
