<svg width="24" height="23" viewBox="0 0 24 23" fill="none" xmlns="http://www.w3.org/2000/svg">
<path d="M20.7049 0.600098H3.32034C2.01155 0.600098 0.949707 1.65319 0.949707 2.95118V20.1924C0.949707 21.4904 2.01155 22.5435 3.32034 22.5435H20.7049C22.0137 22.5435 23.0756 21.4904 23.0756 20.1924V2.95118C23.0756 1.65319 22.0137 0.600098 20.7049 0.600098ZM19.1245 12.9433C19.1245 13.2666 18.8578 13.531 18.5319 13.531H13.9882V18.0373C13.9882 18.3606 13.7215 18.6251 13.3955 18.6251H10.6298C10.3038 18.6251 10.0371 18.3606 10.0371 18.0373V13.531H5.49341C5.16745 13.531 4.90075 13.2666 4.90075 12.9433V10.2003C4.90075 9.87708 5.16745 9.61258 5.49341 9.61258H10.0371V5.10634C10.0371 4.78306 10.3038 4.51857 10.6298 4.51857H13.3955C13.7215 4.51857 13.9882 4.78306 13.9882 5.10634V9.61258H18.5319C18.8578 9.61258 19.1245 9.87708 19.1245 10.2003V12.9433Z" fill="#578CF0"/>
</svg>
